<?xml version="1.0" standalone="no"?>
<!DOCTYPE svg PUBLIC "-//W3C//DTD SVG 20010904//EN"
 "http://www.w3.org/TR/2001/REC-SVG-20010904/DTD/svg10.dtd">
<svg version="1.0" xmlns="http://www.w3.org/2000/svg"
 width="510.000000pt" height="510.000000pt" viewBox="0 0 510.000000 510.000000"
 preserveAspectRatio="xMidYMid meet">

<g transform="translate(0.000000,510.000000) scale(0.100000,-0.100000)"
fill="#000000" stroke="none">
<path d="M2060 5034 c-235 -36 -437 -118 -612 -250 -192 -143 -315 -326 -380
-562 -31 -112 -31 -361 -1 -482 86 -339 318 -597 718 -798 81 -40 227 -103
480 -207 219 -90 472 -217 568 -286 101 -72 216 -190 266 -272 142 -239 131
-567 -28 -803 l-31 -45 0 -160 c0 -94 4 -159 10 -159 22 0 212 155 295 241
150 155 233 298 281 484 22 85 25 122 25 245 0 123 -4 160 -25 243 -44 172
-120 299 -267 446 -198 198 -481 362 -1100 637 -361 160 -468 221 -579 333
-75 76 -121 149 -157 253 -22 60 -27 96 -31 203 -5 151 7 215 64 334 119 252
367 404 684 418 210 10 395 -40 562 -150 199 -131 319 -295 435 -596 127 -331
121 -321 199 -321 41 0 59 5 74 20 19 19 20 33 20 543 0 495 -1 525 -18 540
-30 28 -66 21 -106 -20 -20 -21 -36 -41 -36 -44 0 -13 -67 -49 -90 -49 -12 0
-77 25 -144 54 -239 108 -443 172 -631 201 -91 13 -375 19 -445 9z"/>
<path d="M2300 3850 c-39 -39 -22 -66 75 -114 133 -67 138 -75 145 -274 5
-149 6 -155 29 -171 13 -9 109 -59 213 -112 l188 -97 0 252 c0 152 4 267 11
291 11 38 46 79 116 135 42 33 50 63 24 89 -20 20 -31 21 -401 21 -367 0 -381
-1 -400 -20z"/>
<path d="M2518 1627 c-3 -759 -4 -835 -20 -858 -10 -17 -48 -39 -105 -64 -48
-20 -94 -42 -100 -47 -20 -16 -16 -66 7 -78 13 -7 337 -9 1024 -8 992 3 1005
3 1020 23 42 56 125 520 151 837 5 69 4 79 -15 98 -23 23 -49 26 -72 8 -8 -7
-32 -58 -53 -113 -109 -291 -254 -479 -445 -579 -153 -80 -306 -109 -570 -108
-218 1 -345 19 -372 53 -17 20 -18 69 -18 714 l0 692 -72 55 c-114 87 -317
208 -347 208 -7 0 -11 -286 -13 -833z"/>
<path d="M919 2128 c-8 -16 -10 -61 -5 -157 16 -321 66 -844 86 -897 15 -38
51 -50 92 -29 112 60 106 58 156 47 26 -5 113 -33 194 -61 174 -60 336 -101
514 -130 139 -22 394 -42 436 -34 44 8 65 94 33 140 -12 17 -29 22 -92 28
-274 22 -537 111 -722 243 -100 70 -244 215 -331 331 -88 117 -183 292 -229
425 -18 50 -37 96 -43 103 -18 22 -76 16 -89 -9z"/>
</g>
</svg>
